<svg version="1.2" xmlns="http://www.w3.org/2000/svg" viewBox="0 0 1200 400" width="1200" height="400">
	<title>New Project</title>
	<style>
		tspan { white-space:pre } 
		.s0 { fill: #000000 } 
		.s1 { fill: #a6a6a6 } 
		.t2 { font-size: 8px;fill: #ffffff;font-family: "Product Sans" } 
		.s3 { fill: #ffffff } 
		.s4 { fill: #ea4335 } 
		.s5 { fill: #fbbc04 } 
		.s6 { fill: #4285f4 } 
		.s7 { fill: #34a853 } 
	</style>
	<g id="artwork">
		<g id="&lt;Group&gt;">
			<g id="&lt;Group&gt;">
				<path id="&lt;Path&gt;" class="s0" d="m0 40c0-22.1 17.9-40 40-40h1118.4c22 0 40 17.9 40 40v320c0 22.1-18 40-40 40h-1118.4c-22.1 0-40-17.9-40-40z"/>
			</g>
			<g id="&lt;Group&gt;">
				<g id="&lt;Group&gt;">
					<path id="&lt;Compound Path&gt;" fill-rule="evenodd" class="s1" d="m0 40c0-22.1 17.9-40 40-40h1118.3c22.1 0 40 17.9 40 40v320c0 22.1-17.9 40-40 40h-1118.3c-22.1 0-40-17.9-40-40zm7.1 318.4c0 18.6 15 33.6 33.6 33.6h1116.9c18.6 0 33.6-15 33.6-33.6v-316.8c0-18.6-15-33.6-33.6-33.6h-1116.9c-18.6 0-33.6 15-33.6 33.6z"/>
				</g>
			</g>
			<text id="GET IT ON
" style="transform: matrix(8.877,0,0,8.877,364.311,137.33)" >
				<tspan x="0" y="0" class="t2" dx="0 0 0 0 0 0 0 0 0 0" >GET IT ON
</tspan>
			</text>
			<path id="&lt;Compound Path&gt;" fill-rule="evenodd" class="s3" d="m642.7 252.8c0 21.7-17 37.7-37.9 37.7-20.9 0-37.9-16-37.9-37.7 0-21.9 17-37.8 37.9-37.8 20.9 0 37.9 15.9 37.9 37.8zm-16.6 0c0-13.6-9.8-22.9-21.3-22.9-11.4 0-21.3 9.3-21.3 22.9 0 13.4 9.9 22.8 21.3 22.8 11.5 0 21.3-9.4 21.3-22.8zm-66.1 0c0 21.7-17 37.7-37.9 37.7-20.8 0-37.8-16-37.8-37.7 0-21.9 17-37.8 37.8-37.8 20.9 0 37.9 15.9 37.9 37.8zm-16.5 0c0-13.6-9.9-22.9-21.4-22.9-11.4 0-21.3 9.3-21.3 22.9 0 13.4 9.9 22.8 21.3 22.8 11.5 0 21.4-9.4 21.4-22.8zm-65.8-26.2c0.6 2.9 0.9 6.3 0.9 10 0 12-3.3 26.9-13.9 37.5-10.3 10.7-23.4 16.4-40.9 16.4-32.3 0-59.5-26.3-59.5-58.6 0-32.3 27.2-58.6 59.5-58.6 17.9 0 30.6 7 40.2 16.1l-11.3 11.3c-6.9-6.4-16.2-11.4-28.9-11.4-23.6 0-42 19-42 42.6 0 23.6 18.4 42.6 42 42.6 15.3 0 24-6.1 29.6-11.7 4.6-4.6 7.6-11.2 8.7-20.2h-38.3v-16zm350 16.7l-50.5 20.9c3.9 7.6 9.9 11.4 18.3 11.4 8.5 0 14.3-4.1 18.6-10.4l12.9 8.6c-4.2 6.1-14.2 16.7-31.5 16.7-21.4 0-37.4-16.6-37.4-37.7 0-22.5 16.1-37.8 35.6-37.8 19.6 0 29.1 15.6 32.3 24zm-19.5-5.7c-1.8-4.7-7.4-8-14-8-8.4 0-20.1 7.4-19.7 22zm-74.8-60.3h16.6v111h-16.6zm-27.2 40h15.7v67.8c0 27.9-16.4 39.3-35.8 39.3-18.4 0-29.4-12.3-33.5-22.3l14.4-6c2.6 6.1 8.9 13.4 19.1 13.4 12.4 0 20.1-7.7 20.1-22.1v-5.5h-0.6c-3.7 4.6-10.8 8.6-19.8 8.6-18.9 0-36.2-16.4-36.2-37.6 0-21.3 17.3-37.9 36.2-37.9 9 0 16.1 4 19.8 8.4h0.6zm1.2 35.7c0-13.3-8.9-23.1-20.2-23.1-11.4 0-21 9.8-21 23.1 0 13.1 9.6 22.7 21 22.7 11.3 0 20.2-9.6 20.2-22.7zm232.6-41.2c0 21.1-18 34.4-36.4 34.4h-23.1v42.1h-16.6v-111h39.7c18.4 0 36.4 13.3 36.4 34.5zm-16.5 0c0-8.8-7.1-19-19.5-19h-23.5v38h23.5c12.4 0 19.5-10.4 19.5-19zm116.6 33.8v42.5h-16v-8.6h-0.6c-3.8 5.9-10 10.9-21.1 10.9-14.6 0-27.5-9.6-27.5-24.4 0-16.3 16.1-25 31.9-25 7.9 0 14.3 2.6 17.3 4.3v-1.2c-0.1-9.1-8.8-14.3-17.4-14.3-6.1 0-12 2-15.1 8.2l-14.7-6.2c5.1-11.7 17.5-16.9 29.5-16.9 19 0 33.7 11 33.7 30.7zm-16 12.5c-4.4-2.1-7.8-3.7-15.1-3.7-8.2 0-17.6 3.3-17.6 11.9 0 6.7 7.6 9.4 13 9.4 9.6 0 18.4-7.3 19.7-17.6zm92.7-40.8l-45.6 104.6h-17.3l16.9-37.4-29.6-67.2h17.9l19.7 48.1h0.6l18.9-48.1zm-167.6-40h16.6v111h-16.6z"/>
			<g id="&lt;Group&gt;">
				<path id="&lt;Path&gt;" class="s4" d="m183.9 194.4l-94.5 100.3q0 0 0 0c2.9 10.9 12.9 18.9 24.7 18.9 4.7 0 9.1-1.2 12.9-3.5l0.3-0.2 106.4-61.3z"/>
				<path id="&lt;Path&gt;" class="s5" d="m279.5 177.3l-0.1-0.1-45.9-26.6-51.7 46 51.9 51.9 45.7-26.3c8-4.3 13.4-12.8 13.4-22.5 0-9.7-5.4-18.1-13.3-22.4z"/>
				<path id="&lt;Path&gt;" class="s6" d="m89.4 104.3q-0.9 3.1-0.9 6.6v177.2q0 3.4 0.9 6.6l97.8-97.8z"/>
				<path id="&lt;Path&gt;" class="s7" d="m184.6 199.5l48.9-48.9-106.2-61.6c-3.9-2.3-8.4-3.7-13.2-3.7-11.8 0-21.8 8.1-24.7 19q0 0 0 0z"/>
			</g>
		</g>
	</g>
</svg>