<svg width="88" height="136" viewBox="0 0 88 136" fill="none" xmlns="http://www.w3.org/2000/svg">
<path d="M22.9904 43.383C17.9897 52.3013 15.262 62.6658 15.262 73.7535V120.032C15.262 128.468 21.8539 135.459 29.8096 135.459C37.7653 135.459 44.3572 128.468 44.3572 120.032V73.7535C44.3572 56.64 57.3137 42.901 73.4524 42.901C81.4081 42.901 88 35.911 88 27.4747C88 19.0385 81.4081 12.0485 73.4524 12.0485C62.9963 12.0485 53.2221 15.182 44.5845 20.2437C44.5845 20.2437 37.1483 24.5528 31.9528 30.8492C23.997 40.4906 22.9904 43.383 22.9904 43.383Z" fill="#00704A"/>
<path d="M33.7712 5.16503C39.2915 9.6414 40.5904 24.7922 40.5904 24.7922L37.9926 27.5469C37.9926 27.5469 32.797 26.8582 29.8745 21.3488C26.952 15.8394 21.7565 12.3961 21.7565 12.3961C21.7565 12.3961 24.3542 22.0375 28.2509 24.7922C32.1476 27.5469 24.0295 27.5469 17.2103 23.0705C10.3911 18.5941 8.4428 12.3961 7.46863 9.64141C6.49446 6.88672 0 5.16503 0 5.16503C0 5.16503 7.14391 0 15.9114 0C24.679 0 28.2509 0.688667 33.7712 5.16503Z" fill="#00704A"/>
</svg>
