<svg width="1682" height="391" viewBox="0 0 1682 391" fill="none" xmlns="http://www.w3.org/2000/svg">
<path fill-rule="evenodd" clip-rule="evenodd" d="M770.54 13.52C788.988 -20.8675 844 16.6594 847.895 55.6327V229.336C847.895 255.026 861.08 271.705 887.449 279.371L895.522 280.178H900.365C922.295 280.178 937.632 267.266 946.377 241.441L947.184 230.95V228.529C947.184 207.143 934.807 191.81 910.052 182.529C904.508 180.726 900.079 179.384 896.427 178.278C886.895 175.39 882.662 174.108 877.763 170.424C875.231 168.52 868.04 163.02 870.04 149.02C873.134 131.804 883.817 130.073 897.943 130.073C929.963 130.073 956.871 143.792 978.666 171.231C991.582 188.582 998.04 207.143 998.04 226.915V234.985C998.04 270.897 978.935 299.95 940.726 322.143C927.004 328.061 914.088 331.02 901.979 331.02H893.1C867.807 331.02 844.935 320.529 824.485 299.547C806.188 281.254 797.04 256.506 797.04 225.301V84.0199C796.518 61.0351 786.926 52.2627 778.906 44.9291C770.741 37.4621 764.207 31.4867 770.54 13.52ZM1299.95 26.395C1314.19 26.395 1325.99 38.9076 1325.99 54.009V302.535C1325.99 317.636 1314.19 330.149 1299.95 330.149C1285.71 330.149 1273.91 317.636 1273.91 302.535V54.009C1273.91 38.9076 1285.71 26.395 1299.95 26.395ZM1190 330.149C1204.24 330.149 1216.25 317.636 1216.25 302.535C1216.25 287.433 1204.24 274.921 1190 274.921H1132.74C1113.21 274.921 1096.52 264.134 1087.57 247.307C1087.57 247.307 1199.99 198.982 1209.29 194.051C1219.65 188.557 1226.14 183.265 1226.14 168.163C1226.14 107.326 1162.2 99.7447 1128.49 103.443C1071.12 103.443 1028.57 158.856 1028.57 219.693C1028.57 280.53 1075.37 330.149 1132.74 330.149H1190ZM41.1543 165.328C32.2027 181.292 27.32 199.845 27.32 219.693V302.535C27.32 317.636 39.1199 330.149 53.3611 330.149C67.6024 330.149 79.4023 317.636 79.4023 302.535V219.693C79.4023 189.059 102.595 164.465 131.485 164.465C145.726 164.465 157.526 151.952 157.526 136.851C157.526 121.75 145.726 109.237 131.485 109.237C112.768 109.237 95.2711 114.846 79.8092 123.907C79.8092 123.907 76.6379 125.745 72.3096 128.937C71.363 121.58 68.2761 103.259 60.4527 96.9152C50.571 88.9022 44.177 87.6694 28.4825 87.6694C12.7881 87.6694 0 96.9152 0 96.9152C0 96.9152 11.6255 99.9971 13.3693 104.928C13.4402 105.128 13.5139 105.339 13.591 105.559C15.4109 110.756 19.0967 121.28 30.8076 128.967C43.0144 136.98 57.5463 136.98 50.571 132.049C43.5957 127.118 38.9455 109.859 38.9455 109.859C38.9455 109.859 48.2459 116.023 53.4774 125.885C56.4917 131.568 60.8569 134.385 64.0155 135.753C61.6712 137.912 59.329 140.308 57.1975 142.892C42.9563 160.15 41.1543 165.328 41.1543 165.328ZM393.184 136.851C393.184 121.75 381.384 109.237 367.142 109.237C352.901 109.237 341.101 121.75 341.101 136.851V219.693C341.101 250.327 317.908 274.921 289.019 274.921C260.13 274.921 236.937 250.327 236.937 219.693V136.851C236.937 121.75 225.137 109.237 210.896 109.237C196.654 109.237 184.854 121.75 184.854 136.851V219.693C184.854 280.53 231.647 330.149 289.019 330.149C307.736 330.149 390.269 330.149 393.184 219.693V136.851ZM595.237 334.834C580.996 334.834 569.196 322.321 569.196 307.219V210.57C569.196 187.703 551.7 169.149 530.134 169.149C508.569 169.149 491.073 187.703 491.073 210.57V307.219C491.073 322.321 479.273 334.834 465.032 334.834C450.79 334.834 438.99 322.321 438.99 307.219C438.99 307.219 439.36 269.25 438.99 210.57C438.621 151.891 473.498 132.732 489.445 124.277C501.652 117.805 515.486 113.922 530.134 113.922C555.769 113.922 578.555 125.14 595.237 142.83C611.513 125.14 634.706 113.922 660.34 113.922C710.795 113.922 751.484 157.068 751.484 210.57V258.895C751.484 258.895 748.335 294.399 759.96 314.616C763.969 321.588 772.32 326.493 780.879 331.52C797.139 341.07 814.149 351.06 803.556 376.501C794.399 398.492 764.717 389.199 748.441 381.186C732.165 373.173 713.458 357.393 705.901 332.738C698.345 308.083 699.402 283.057 699.402 283.057V210.57C699.402 187.703 681.906 169.149 660.34 169.149C638.775 169.149 621.279 187.703 621.279 210.57V307.219C621.279 322.321 609.479 334.834 595.237 334.834ZM1424.87 54.009C1424.87 38.9076 1413.07 26.395 1398.83 26.395C1384.59 26.395 1372.79 38.9076 1372.79 54.009V302.535C1372.79 317.636 1384.59 330.149 1398.83 330.149C1413.07 330.149 1424.87 317.636 1424.87 302.535V54.009ZM1671.69 178.179C1648.91 137.499 1616.54 117.159 1574.57 117.159C1559.53 117.159 1543.49 120.884 1526.44 128.332C1487.48 152.253 1468 183.479 1468 222.011V227.167C1468 239.916 1471.15 254.24 1477.45 270.139C1501.23 310.819 1532.17 331.159 1570.27 331.159H1578.01C1590.04 331.159 1602 325.659 1603.5 309.659C1604.62 297.659 1603 292.159 1594.34 286.469C1585.67 280.778 1560.82 275.296 1560.82 275.296C1535.04 265.985 1522.14 249.37 1522.14 225.449L1523 213.416C1532.46 185.341 1549.65 171.304 1574.57 171.304L1587.46 173.023C1614.39 181.904 1627.86 199.379 1627.86 225.449V305.376C1631.58 322.565 1639.6 331.159 1651.92 331.159H1656.22L1662.23 330.3C1675.41 325 1682 317.265 1682 307.095V221.151C1682 206.398 1678.56 192.074 1671.69 178.179ZM1091.08 316.531C1091.08 316.531 1070.16 304.82 1058.53 283.247C1046.91 261.673 1044 246.264 1044 222.841C1044 199.418 1050.98 176.612 1062.6 160.586C1074.23 144.561 1089.88 131.422 1109.94 122.371C1130 113.32 1167.23 114.974 1177.69 116.207C1188.16 117.439 1198.04 122.371 1198.04 122.371C1198.04 122.371 1176.89 122.519 1161.19 142.244C1153.11 152.396 1150.29 157.573 1147.79 162.161C1145.44 166.487 1143.36 170.289 1137.44 177.244C1125.23 191.575 1117.44 195.994 1098.69 199.744C1088.43 201.795 1082.55 202.35 1077.34 202.842C1073.02 203.248 1069.17 203.611 1063.69 204.744C1063.69 204.744 1069.57 190.188 1081.19 177.244C1092.82 164.3 1102.44 158.494 1102.44 158.494C1102.44 158.494 1088.14 162.971 1077.44 174.744C1064.94 188.494 1056.17 202.5 1054.46 227.772C1053.3 245.031 1055.82 262.653 1064.34 283.247C1072.48 302.903 1091.08 316.531 1091.08 316.531Z" fill="#075C28"/>
</svg>
